<svg width="351" height="192" xmlns="http://www.w3.org/2000/svg" xmlns:xlink="http://www.w3.org/1999/xlink"><defs><circle id="b" cx="317.556" cy="28.457" r="28"/><filter x="-14.3%" y="-12.5%" width="128.6%" height="128.6%" filterUnits="objectBoundingBox" id="a"><feOffset dy="1" in="SourceAlpha" result="shadowOffsetOuter1"/><feGaussianBlur stdDeviation="2.5" in="shadowOffsetOuter1" result="shadowBlurOuter1"/><feColorMatrix values="0 0 0 0 0.105882353 0 0 0 0 0.121568627 0 0 0 0 0.137254902 0 0 0 0.15 0" in="shadowBlurOuter1"/></filter><circle id="d" cx="317.556" cy="90.457" r="28"/><filter x="-14.3%" y="-12.5%" width="128.6%" height="128.6%" filterUnits="objectBoundingBox" id="c"><feOffset dy="1" in="SourceAlpha" result="shadowOffsetOuter1"/><feGaussianBlur stdDeviation="2.5" in="shadowOffsetOuter1" result="shadowBlurOuter1"/><feColorMatrix values="0 0 0 0 0.105882353 0 0 0 0 0.121568627 0 0 0 0 0.137254902 0 0 0 0.15 0" in="shadowBlurOuter1"/></filter><circle id="f" cx="317.556" cy="151.457" r="28"/><filter x="-14.3%" y="-12.5%" width="128.6%" height="128.6%" filterUnits="objectBoundingBox" id="e"><feOffset dy="1" in="SourceAlpha" result="shadowOffsetOuter1"/><feGaussianBlur stdDeviation="2.5" in="shadowOffsetOuter1" result="shadowBlurOuter1"/><feColorMatrix values="0 0 0 0 0.105882353 0 0 0 0 0.121568627 0 0 0 0 0.137254902 0 0 0 0.15 0" in="shadowBlurOuter1"/></filter></defs><g fill="none" fill-rule="evenodd"><path d="M42.66 16.917c3.42-3.24 7.47-4.86 12.15-4.86 3.9 0 6.96 1.095 9.18 3.285 2.22 2.19 3.33 5.055 3.33 8.595 0 .9-.09 1.89-.27 2.97l-4.68 26.55H48.33l3.96-22.95c.12-.6.18-1.23.18-1.89 0-2.7-1.23-4.05-3.69-4.05-2.64 0-4.65 1.5-6.03 4.5l-4.23 24.39H24.39l4.05-22.95c.12-1.2.18-1.83.18-1.89 0-2.7-1.23-4.05-3.69-4.05-2.7 0-4.71 1.5-6.03 4.5l-4.23 24.39H.54l7.11-40.5h14.13l-.63 3.51c2.94-2.94 6.72-4.41 11.34-4.41s8.01 1.62 10.17 4.86zm64.395 11.7l-4.32 24.84h-13.68l.36-2.07c-2.22 1.86-5.31 2.79-9.27 2.79-3.9 0-7.155-1.065-9.765-3.195-2.61-2.13-3.915-4.995-3.915-8.595 0-4.38 1.665-7.83 4.995-10.35 3.33-2.52 7.395-3.78 12.195-3.78 4.14 0 7.29.78 9.45 2.34l.45-2.61c0-.06.015-.24.045-.54.03-.3.045-.54.045-.72 0-2.52-1.38-3.78-4.14-3.78-2.46 0-4.23 1.02-5.31 3.06h-13.32c1.08-4.08 3.45-7.425 7.11-10.035 3.66-2.61 8.04-3.915 13.14-3.915 4.98 0 8.94 1.185 11.88 3.555 2.94 2.37 4.41 5.595 4.41 9.675 0 .78-.12 1.89-.36 3.33zm-16.11 13.68l.45-2.52c-.72-1.86-2.52-2.79-5.4-2.79-1.62 0-3.06.375-4.32 1.125-1.26.75-1.89 1.845-1.89 3.285 0 1.08.495 1.92 1.485 2.52.99.6 2.175.9 3.555.9 2.76 0 4.8-.84 6.12-2.52zm15.705 11.16l7.11-40.5h14.13l-.63 3.51c2.94-2.94 6.69-4.41 11.25-4.41 3.84 0 6.855 1.08 9.045 3.24 2.19 2.16 3.285 5.07 3.285 8.73 0 1.02-.09 2.1-.27 3.24l-4.59 26.19h-14.13l4.05-23.13c.12-.96.18-1.47.18-1.53 0-2.82-1.5-4.23-4.5-4.23-1.38 0-2.655.405-3.825 1.215a7.669 7.669 0 0 0-2.655 3.195l-4.32 24.48h-14.13zm84.015-24.84l-4.32 24.84h-13.68l.36-2.07c-2.22 1.86-5.31 2.79-9.27 2.79-3.9 0-7.155-1.065-9.765-3.195-2.61-2.13-3.915-4.995-3.915-8.595 0-4.38 1.665-7.83 4.995-10.35 3.33-2.52 7.395-3.78 12.195-3.78 4.14 0 7.29.78 9.45 2.34l.45-2.61c0-.06.015-.24.045-.54.03-.3.045-.54.045-.72 0-2.52-1.38-3.78-4.14-3.78-2.46 0-4.23 1.02-5.31 3.06h-13.32c1.08-4.08 3.45-7.425 7.11-10.035 3.66-2.61 8.04-3.915 13.14-3.915 4.98 0 8.94 1.185 11.88 3.555 2.94 2.37 4.41 5.595 4.41 9.675 0 .78-.12 1.89-.36 3.33zm-16.11 13.68l.45-2.52c-.72-1.86-2.52-2.79-5.4-2.79-1.62 0-3.06.375-4.32 1.125-1.26.75-1.89 1.845-1.89 3.285 0 1.08.495 1.92 1.485 2.52.99.6 2.175.9 3.555.9 2.76 0 4.8-.84 6.12-2.52zm42.255 8.01l.54-2.7c-2.76 2.76-6.03 4.14-9.81 4.14-4.92 0-8.745-1.59-11.475-4.77-2.73-3.18-4.095-7.17-4.095-11.97 0-6.48 1.95-11.925 5.85-16.335 3.9-4.41 8.91-6.615 15.03-6.615 2.34 0 4.395.39 6.165 1.17 1.77.78 3.045 1.74 3.825 2.88l.63-3.15h14.04l-6.21 35.1c-2.46 13.74-10.26 20.61-23.4 20.61-5.52 0-9.975-1.335-13.365-4.005-3.39-2.67-5.175-6.225-5.355-10.665h13.68c.24 2.88 2.16 4.32 5.76 4.32 4.5 0 7.23-2.67 8.19-8.01zm2.43-13.59l1.71-9.9c-.3-1.02-.99-1.875-2.07-2.565-1.08-.69-2.34-1.035-3.78-1.035-2.7 0-4.86 1.05-6.48 3.15-1.62 2.1-2.43 4.68-2.43 7.74 0 1.92.525 3.465 1.575 4.635 1.05 1.17 2.535 1.755 4.455 1.755 2.82 0 5.16-1.26 7.02-3.78zm42.345 2.61h13.32c-1.32 4.74-3.735 8.43-7.245 11.07-3.51 2.64-7.875 3.96-13.095 3.96-5.7 0-10.23-1.665-13.59-4.995-3.36-3.33-5.04-7.785-5.04-13.365 0-6.54 2.085-12.165 6.255-16.875 4.17-4.71 9.675-7.065 16.515-7.065 5.46 0 9.735 1.485 12.825 4.455 3.09 2.97 4.635 7.125 4.635 12.465 0 2.16-.27 4.47-.81 6.93h-26.01v.36c0 4.74 2.04 7.11 6.12 7.11 2.94 0 4.98-1.35 6.12-4.05zm-3.42-16.29c-3.36 0-5.85 1.95-7.47 5.85h12.24c0-.06.015-.21.045-.45.03-.24.045-.42.045-.54 0-1.44-.435-2.61-1.305-3.51-.87-.9-2.055-1.35-3.555-1.35zM131.265 152.617l-4.32 24.84h-13.68l.36-2.07c-2.22 1.86-5.31 2.79-9.27 2.79-3.9 0-7.155-1.065-9.765-3.195-2.61-2.13-3.915-4.995-3.915-8.595 0-4.38 1.665-7.83 4.995-10.35 3.33-2.52 7.395-3.78 12.195-3.78 4.14 0 7.29.78 9.45 2.34l.45-2.61c0-.06.015-.24.045-.54.03-.3.045-.54.045-.72 0-2.52-1.38-3.78-4.14-3.78-2.46 0-4.23 1.02-5.31 3.06h-13.32c1.08-4.08 3.45-7.425 7.11-10.035 3.66-2.61 8.04-3.915 13.14-3.915 4.98 0 8.94 1.185 11.88 3.555 2.94 2.37 4.41 5.595 4.41 9.675 0 .78-.12 1.89-.36 3.33zm-16.11 13.68l.45-2.52c-.72-1.86-2.52-2.79-5.4-2.79-1.62 0-3.06.375-4.32 1.125-1.26.75-1.89 1.845-1.89 3.285 0 1.08.495 1.92 1.485 2.52.99.6 2.175.9 3.555.9 2.76 0 4.8-.84 6.12-2.52zm30.375 7.92l-3.06 17.55h-14.13l9.63-54.81h14.13l-.63 3.42c2.88-2.88 6.33-4.32 10.35-4.32 4.8 0 8.505 1.635 11.115 4.905 2.61 3.27 3.915 7.425 3.915 12.465 0 6.96-1.995 12.855-5.985 17.685-3.99 4.83-9.135 7.245-15.435 7.245-2.16 0-4.155-.39-5.985-1.17-1.83-.78-3.135-1.77-3.915-2.97zm3.87-22.14l-1.8 10.44c.3 1.14.975 2.055 2.025 2.745 1.05.69 2.325 1.035 3.825 1.035 2.64 0 4.815-1.065 6.525-3.195s2.565-4.875 2.565-8.235c0-2.04-.525-3.69-1.575-4.95-1.05-1.26-2.565-1.89-4.545-1.89-2.82 0-5.16 1.35-7.02 4.05zm40.725 22.14l-3.06 17.55h-14.13l9.63-54.81h14.13l-.63 3.42c2.88-2.88 6.33-4.32 10.35-4.32 4.8 0 8.505 1.635 11.115 4.905 2.61 3.27 3.915 7.425 3.915 12.465 0 6.96-1.995 12.855-5.985 17.685-3.99 4.83-9.135 7.245-15.435 7.245-2.16 0-4.155-.39-5.985-1.17-1.83-.78-3.135-1.77-3.915-2.97zm3.87-22.14l-1.8 10.44c.3 1.14.975 2.055 2.025 2.745 1.05.69 2.325 1.035 3.825 1.035 2.64 0 4.815-1.065 6.525-3.195s2.565-4.875 2.565-8.235c0-2.04-.525-3.69-1.575-4.95-1.05-1.26-2.565-1.89-4.545-1.89-2.82 0-5.16 1.35-7.02 4.05zm26.055 12.78h13.23c.12 1.14.645 2.025 1.575 2.655.93.63 2.055.945 3.375.945 2.94 0 4.41-.93 4.41-2.79 0-.66-.225-1.17-.675-1.53-.45-.36-1.275-.69-2.475-.99l-6.48-1.8c-6.3-1.62-9.45-5.19-9.45-10.71 0-4.5 1.77-8.055 5.31-10.665 3.54-2.61 7.83-3.915 12.87-3.915 5.7 0 9.99 1.2 12.87 3.6 2.88 2.4 4.41 5.64 4.59 9.72h-12.87a3.543 3.543 0 0 0-1.395-2.475c-.81-.63-1.875-.945-3.195-.945-1.2 0-2.19.24-2.97.72-.78.48-1.17 1.17-1.17 2.07 0 .96.72 1.68 2.16 2.16l7.56 2.16c6.3 1.86 9.45 5.52 9.45 10.98 0 4.68-1.785 8.235-5.355 10.665-3.57 2.43-7.995 3.645-13.275 3.645-5.58 0-9.945-1.215-13.095-3.645-3.15-2.43-4.815-5.715-4.995-9.855zm37.305 4.77c0-2.34.795-4.32 2.385-5.94 1.59-1.62 3.555-2.43 5.895-2.43 2.34 0 4.32.795 5.94 2.385 1.62 1.59 2.43 3.585 2.43 5.985 0 2.4-.81 4.41-2.43 6.03s-3.6 2.43-5.94 2.43c-2.28 0-4.23-.81-5.85-2.43-1.62-1.62-2.43-3.63-2.43-6.03z" fill="#000"/><g fill-rule="nonzero" transform="translate(0 4)"><use fill="#000" filter="url(#a)" xlink:href="#b"/><use fill="#990F3D" xlink:href="#b"/></g><g fill-rule="nonzero" transform="translate(0 4)"><use fill="#000" filter="url(#c)" xlink:href="#d"/><use fill="#F83" xlink:href="#d"/></g><g fill-rule="nonzero" transform="translate(0 4)"><use fill="#000" filter="url(#e)" xlink:href="#f"/><use fill="#0D7680" xlink:href="#f"/></g><path d="M78.84 117.307l.54-2.7c-2.76 2.76-6.03 4.14-9.81 4.14-4.92 0-8.745-1.59-11.475-4.77-2.73-3.18-4.095-7.17-4.095-11.97 0-6.48 1.95-11.925 5.85-16.335 3.9-4.41 8.91-6.615 15.03-6.615 2.34 0 4.395.39 6.165 1.17 1.77.78 3.045 1.74 3.825 2.88l.63-3.15h14.04l-6.21 35.1c-2.46 13.74-10.26 20.61-23.4 20.61-5.52 0-9.975-1.335-13.365-4.005-3.39-2.67-5.175-6.225-5.355-10.665h13.68c.24 2.88 2.16 4.32 5.76 4.32 4.5 0 7.23-2.67 8.19-8.01zm2.43-13.59l1.71-9.9c-.3-1.02-.99-1.875-2.07-2.565-1.08-.69-2.34-1.035-3.78-1.035-2.7 0-4.86 1.05-6.48 3.15-1.62 2.1-2.43 4.68-2.43 7.74 0 1.92.525 3.465 1.575 4.635 1.05 1.17 2.535 1.755 4.455 1.755 2.82 0 5.16-1.26 7.02-3.78zm36.675-23.76l-7.11 40.5h-14.13l7.11-40.5h14.13zm2.88-11.34c0 2.4-.795 4.32-2.385 5.76-1.59 1.44-3.525 2.16-5.805 2.16-2.22 0-4.08-.675-5.58-2.025-1.5-1.35-2.25-3.105-2.25-5.265 0-2.34.81-4.245 2.43-5.715 1.62-1.47 3.54-2.205 5.76-2.205 2.22 0 4.08.675 5.58 2.025 1.5 1.35 2.25 3.105 2.25 5.265zm-.495 37.89l2.97-15.57h-5.94l1.98-10.98h5.94l2.07-11.16h13.86l-2.07 11.16h8.46l-1.89 10.98h-8.55l-2.52 13.14c-.12.84-.18 1.38-.18 1.62 0 2.16 1.26 3.24 3.78 3.24 1.62 0 3.18-.3 4.68-.9l-2.07 11.97c-2.1.84-4.77 1.26-8.01 1.26-8.58 0-12.87-3.6-12.87-10.8 0-1.38.12-2.7.36-3.96zm55.395-27.45c3.84 0 6.855 1.08 9.045 3.24 2.19 2.16 3.285 5.07 3.285 8.73 0 1.02-.09 2.1-.27 3.24l-4.59 26.19h-14.13l4.05-23.13c.12-.96.18-1.47.18-1.53 0-2.82-1.5-4.23-4.5-4.23-1.38 0-2.655.405-3.825 1.215a7.669 7.669 0 0 0-2.655 3.195l-4.32 24.48h-14.13l10.26-58.5h14.13l-3.78 21.51c2.94-2.94 6.69-4.41 11.25-4.41zm57.195.9l-7.11 40.5h-14.13l.63-3.51c-3.06 2.94-6.81 4.41-11.25 4.41-3.78 0-6.75-1.065-8.91-3.195s-3.24-5.025-3.24-8.685c0-1.08.09-2.19.27-3.33l4.59-26.19h14.13l-3.96 23.13c-.18.66-.27 1.32-.27 1.98 0 2.76 1.41 4.14 4.23 4.14 1.38 0 2.67-.42 3.87-1.26 1.2-.84 2.1-1.95 2.7-3.33l4.32-24.66h14.13zm11.835 37.26l-.54 3.24h-14.13l10.26-58.5h14.13l-3.78 21.42c2.88-2.88 6.33-4.32 10.35-4.32 4.8 0 8.505 1.635 11.115 4.905 2.61 3.27 3.915 7.425 3.915 12.465 0 6.96-1.995 12.855-5.985 17.685-3.99 4.83-9.135 7.245-15.435 7.245-2.16 0-4.155-.39-5.985-1.17-1.83-.78-3.135-1.77-3.915-2.97zm3.87-22.14l-1.8 10.44c.3 1.14.975 2.055 2.025 2.745 1.05.69 2.325 1.035 3.825 1.035 2.64 0 4.815-1.065 6.525-3.195s2.565-4.875 2.565-8.235c0-2.04-.525-3.69-1.575-4.95-1.05-1.26-2.565-1.89-4.545-1.89-2.82 0-5.16 1.35-7.02 4.05z" fill="#000"/><path d="M328.502 35.451l4.054-.006v-5.988l-4.049-.012-.45.012c-.845-.006-1.079-.703-1.079-1.553 0-.422.17-.802.445-1.078l2.86-2.86-4.242-4.241-2.866 2.865a1.519 1.519 0 0 1-1.078.445 1.54 1.54 0 0 1-1.54-1.53v-4.054h-6v4.037h-.007a1.542 1.542 0 0 1-1.54 1.535c-.417 0-.792-.17-1.067-.433l-2.877-2.877-4.236 4.242 2.859 2.86s0 .005-.006.005c.276.282.445.662.445 1.084 0 .844-.234 1.535-1.078 1.553h-4.494v6l4.043-.012v.012a1.54 1.54 0 0 1 1.53 1.541c0 .416-.17.791-.434 1.066l-2.871 2.872 4.242 4.242 2.86-2.86s.005 0 .005.006c.276-.27.656-.445 1.078-.445.844 0 1.536.24 1.547 1.084 0 0-.006.44 0 .44v4.06l6-.012v-4.049h.006a1.538 1.538 0 0 1 2.613-1.084h.006l2.86 2.86 4.242-4.242-2.86-2.86a1.538 1.538 0 0 1-.439-1.078 1.528 1.528 0 0 1 1.518-1.547zm-10.946 2.983a5.994 5.994 0 0 1-5.994-5.995c0-3.31 2.684-6 5.994-6a5.995 5.995 0 0 1 5.994 6c.006 3.311-2.683 5.995-5.994 5.995zM317.556 164.51l-8.484-8.485 2.121-2.12 4.863 4.863v-18.311h3v18.31l4.864-4.863 2.12 2.121-8.484 8.485zm-12 2.947v3h24v-3h-24zM322.056 91.457v3h3v12h-15v-12h3v-3h-6v18h21v-18z" fill="#FFF" fill-rule="nonzero"/><path fill="#FFF" fill-rule="nonzero" d="M316.056 85.2v18.257h3V85.199l3.803 3.803 2.121-2.121-7.424-7.424-7.424 7.424 2.121 2.121z"/></g></svg>